<?xml version="1.0" standalone="no"?>
<!DOCTYPE svg PUBLIC "-//W3C//DTD SVG 20010904//EN"
 "http://www.w3.org/TR/2001/REC-SVG-20010904/DTD/svg10.dtd">
<svg version="1.0" xmlns="http://www.w3.org/2000/svg"
 width="200.000000pt" height="200.000000pt" viewBox="0 0 200.000000 200.000000"
 preserveAspectRatio="xMidYMid meet">
<metadata>
Created by potrace 1.11, written by Peter Selinger 2001-2013
</metadata>
<g transform="translate(0.000000,200.000000) scale(0.100000,-0.100000)"
fill="#000000" stroke="none">
<path d="M1030 1841 c-25 -4 -51 -10 -57 -14 -23 -15 -14 -53 22 -87 38 -37
44 -71 24 -142 -10 -37 -11 -38 -57 -38 l-47 0 -1 -55 c0 -51 2 -55 24 -55 26
0 26 -2 -13 -97 -27 -66 -20 -64 -148 -45 -263 39 -539 -124 -640 -379 -91
-228 -38 -479 138 -654 116 -116 260 -175 422 -175 110 0 172 14 273 62 68 32
100 56 160 117 86 88 132 166 160 277 57 222 -8 437 -183 603 -23 22 -57 48
-74 58 -18 10 -33 21 -33 25 0 12 48 118 54 118 2 0 125 -127 272 -282 147
-156 287 -304 312 -329 l44 -47 -23 -32 c-19 -25 -24 -44 -24 -95 0 -62 -1
-65 -45 -110 -24 -25 -52 -45 -61 -45 -34 0 -49 -12 -49 -40 0 -36 13 -40 115
-40 73 0 86 3 95 19 13 26 13 27 -10 49 -20 18 -20 19 -2 36 15 13 25 14 46 6
15 -5 83 -10 152 -10 l124 0 0 40 0 40 -42 0 -43 0 0 70 0 70 43 0 c41 0 42 0
42 35 l0 35 -71 0 c-57 0 -70 3 -66 14 3 7 35 103 71 213 66 199 66 200 65
309 l-1 109 -101 -308 c-56 -171 -106 -306 -112 -304 -5 2 -155 156 -331 343
l-322 339 434 3 434 2 0 55 0 55 -440 0 -440 0 0 49 0 49 68 8 c63 8 67 11 67
34 0 24 -2 25 -81 28 -71 2 -84 6 -104 27 l-23 25 69 0 c81 0 116 17 98 47 -9
14 -25 18 -75 19 -35 1 -84 -1 -109 -5z m-190 -657 c7 -7 -19 -80 -85 -238
-52 -125 -95 -235 -95 -244 0 -43 64 -68 91 -36 8 9 57 119 110 245 l95 228
58 -45 c63 -50 133 -149 160 -229 24 -68 31 -187 17 -258 -35 -166 -166 -316
-326 -372 -65 -23 -196 -30 -268 -15 -258 53 -437 322 -383 577 23 110 60 179
140 258 72 71 133 108 216 132 53 15 254 13 270 -3z m963 -535 c30 -16 37 -28
37 -66 0 -34 -29 -63 -64 -63 -16 0 -15 3 8 21 56 44 18 105 -42 69 -38 -23
-42 -9 -7 25 27 28 37 30 68 14z"/>
</g>
</svg>
